<svg xmlns="http://www.w3.org/2000/svg" xmlns:xlink="http://www.w3.org/1999/xlink" width="1000" zoomAndPan="magnify" viewBox="0 0 375 374.999991" height="1000" preserveAspectRatio="xMidYMid meet" version="1.0"><defs><g/><clipPath id="710c6276c2"><path d="M 152.847656 127.898438 L 221.847656 127.898438 L 221.847656 192 L 152.847656 192 Z M 152.847656 127.898438 " clip-rule="nonzero"/></clipPath><clipPath id="d141073da0"><path d="M 155 172 L 174 172 L 174 196.898438 L 155 196.898438 Z M 155 172 " clip-rule="nonzero"/></clipPath><clipPath id="82b3fd2d77"><path d="M 200 172 L 220 172 L 220 196.898438 L 200 196.898438 Z M 200 172 " clip-rule="nonzero"/></clipPath><clipPath id="5992acdaa2"><path d="M 174.722656 184 L 176 184 L 176 188 L 174.722656 188 Z M 174.722656 184 " clip-rule="nonzero"/></clipPath><clipPath id="3238d183d7"><path d="M 184 173.898438 L 186 173.898438 L 186 197.148438 L 184 197.148438 Z M 184 173.898438 " clip-rule="nonzero"/></clipPath><clipPath id="c7d94e0541"><path d="M 199 184 L 200.222656 184 L 200.222656 188 L 199 188 Z M 199 184 " clip-rule="nonzero"/></clipPath><clipPath id="e449caaacd"><path d="M 207.882812 175.570312 L 216.882812 175.570312 L 216.882812 194.320312 L 207.882812 194.320312 Z M 207.882812 175.570312 " clip-rule="nonzero"/></clipPath><clipPath id="e51089ea00"><path d="M 220.933594 178.515625 L 226.933594 178.515625 L 226.933594 191.265625 L 220.933594 191.265625 Z M 220.933594 178.515625 " clip-rule="nonzero"/></clipPath><clipPath id="e0372e40a7"><path d="M 148.0625 178.515625 L 153.78125 178.515625 L 153.78125 191.265625 L 148.0625 191.265625 Z M 148.0625 178.515625 " clip-rule="nonzero"/></clipPath><clipPath id="90e85cb4f6"><path d="M 158.234375 175.640625 L 166.894531 175.640625 L 166.894531 194.320312 L 158.234375 194.320312 Z M 158.234375 175.640625 " clip-rule="nonzero"/></clipPath></defs><g clip-path="url(#710c6276c2)"><path fill="#ffffff" d="M 187.347656 127.898438 C 168.324219 127.898438 152.847656 143.375 152.847656 162.398438 L 152.847656 190.5625 C 152.847656 190.949219 153.160156 191.265625 153.550781 191.265625 C 153.9375 191.265625 154.253906 190.949219 154.253906 190.5625 L 154.253906 162.398438 C 154.253906 144.152344 169.097656 129.308594 187.347656 129.308594 C 205.59375 129.308594 220.4375 144.152344 220.4375 162.398438 L 220.4375 190.5625 C 220.4375 190.949219 220.753906 191.265625 221.140625 191.265625 C 221.53125 191.265625 221.847656 190.949219 221.847656 190.5625 L 221.847656 162.398438 C 221.847656 143.375 206.371094 127.898438 187.347656 127.898438 Z M 187.347656 127.898438 " fill-opacity="1" fill-rule="nonzero"/></g><g clip-path="url(#d141073da0)"><path fill="#ffffff" d="M 173.265625 172.960938 L 167.632812 172.960938 C 161.03125 172.960938 155.664062 178.328125 155.664062 184.929688 C 155.664062 191.53125 161.03125 196.898438 167.632812 196.898438 L 173.265625 196.898438 C 173.652344 196.898438 173.96875 196.582031 173.96875 196.195312 L 173.96875 173.664062 C 173.96875 173.277344 173.652344 172.960938 173.265625 172.960938 Z M 172.558594 195.492188 L 167.632812 195.492188 C 161.808594 195.492188 157.070312 190.753906 157.070312 184.929688 C 157.070312 179.105469 161.808594 174.367188 167.632812 174.367188 L 172.558594 174.367188 Z M 172.558594 195.492188 " fill-opacity="1" fill-rule="nonzero"/></g><g clip-path="url(#82b3fd2d77)"><path fill="#ffffff" d="M 207.058594 172.960938 L 201.425781 172.960938 C 201.039062 172.960938 200.722656 173.277344 200.722656 173.664062 L 200.722656 196.195312 C 200.722656 196.582031 201.039062 196.898438 201.425781 196.898438 L 207.058594 196.898438 C 213.660156 196.898438 219.03125 191.53125 219.03125 184.929688 C 219.03125 178.328125 213.660156 172.960938 207.058594 172.960938 Z M 207.058594 195.492188 L 202.132812 195.492188 L 202.132812 174.367188 L 207.058594 174.367188 C 212.882812 174.367188 217.621094 179.105469 217.621094 184.929688 C 217.621094 190.753906 212.882812 195.492188 207.058594 195.492188 Z M 207.058594 195.492188 " fill-opacity="1" fill-rule="nonzero"/></g><g clip-path="url(#5992acdaa2)"><path fill="#ffffff" d="M 175.234375 184.007812 C 174.953125 184.007812 174.722656 184.234375 174.722656 184.511719 L 174.722656 186.535156 C 174.722656 186.8125 174.953125 187.039062 175.234375 187.039062 C 175.515625 187.039062 175.742188 186.8125 175.742188 186.535156 L 175.742188 184.511719 C 175.742188 184.234375 175.515625 184.007812 175.234375 184.007812 Z M 175.234375 184.007812 " fill-opacity="1" fill-rule="nonzero"/></g><path fill="#ffffff" d="M 177.273438 181.984375 C 176.992188 181.984375 176.765625 182.210938 176.765625 182.492188 L 176.765625 188.554688 C 176.765625 188.835938 176.992188 189.0625 177.273438 189.0625 C 177.554688 189.0625 177.785156 188.835938 177.785156 188.554688 L 177.785156 182.492188 C 177.785156 182.210938 177.554688 181.984375 177.273438 181.984375 Z M 177.273438 181.984375 " fill-opacity="1" fill-rule="nonzero"/><path fill="#ffffff" d="M 179.3125 182.996094 C 179.03125 182.996094 178.804688 183.222656 178.804688 183.5 L 178.804688 187.546875 C 178.804688 187.824219 179.03125 188.050781 179.3125 188.050781 C 179.59375 188.050781 179.824219 187.824219 179.824219 187.546875 L 179.824219 183.5 C 179.824219 183.222656 179.59375 182.996094 179.3125 182.996094 Z M 179.3125 182.996094 " fill-opacity="1" fill-rule="nonzero"/><path fill="#ffffff" d="M 181.355469 178.953125 C 181.074219 178.953125 180.84375 179.179688 180.84375 179.457031 L 180.84375 191.589844 C 180.84375 191.867188 181.074219 192.09375 181.355469 192.09375 C 181.636719 192.09375 181.863281 191.867188 181.863281 191.589844 L 181.863281 179.457031 C 181.863281 179.179688 181.636719 178.953125 181.355469 178.953125 Z M 181.355469 178.953125 " fill-opacity="1" fill-rule="nonzero"/><path fill="#ffffff" d="M 183.394531 182.996094 C 183.113281 182.996094 182.882812 183.222656 182.882812 183.5 L 182.882812 187.546875 C 182.882812 187.824219 183.113281 188.050781 183.394531 188.050781 C 183.675781 188.050781 183.902344 187.824219 183.902344 187.546875 L 183.902344 183.5 C 183.902344 183.222656 183.675781 182.996094 183.394531 182.996094 Z M 183.394531 182.996094 " fill-opacity="1" fill-rule="nonzero"/><g clip-path="url(#3238d183d7)"><path fill="#ffffff" d="M 185.433594 173.898438 C 185.152344 173.898438 184.925781 174.125 184.925781 174.40625 L 184.925781 196.640625 C 184.925781 196.921875 185.152344 197.148438 185.433594 197.148438 C 185.714844 197.148438 185.945312 196.921875 185.945312 196.640625 L 185.945312 174.40625 C 185.945312 174.125 185.714844 173.898438 185.433594 173.898438 Z M 185.433594 173.898438 " fill-opacity="1" fill-rule="nonzero"/></g><path fill="#ffffff" d="M 187.472656 177.941406 C 187.191406 177.941406 186.964844 178.167969 186.964844 178.449219 L 186.964844 192.597656 C 186.964844 192.878906 187.191406 193.105469 187.472656 193.105469 C 187.753906 193.105469 187.984375 192.878906 187.984375 192.597656 L 187.984375 178.449219 C 187.984375 178.167969 187.753906 177.941406 187.472656 177.941406 Z M 187.472656 177.941406 " fill-opacity="1" fill-rule="nonzero"/><path fill="#ffffff" d="M 189.515625 179.964844 C 189.230469 179.964844 189.003906 180.191406 189.003906 180.46875 L 189.003906 190.578125 C 189.003906 190.855469 189.230469 191.082031 189.515625 191.082031 C 189.796875 191.082031 190.023438 190.855469 190.023438 190.578125 L 190.023438 180.46875 C 190.023438 180.191406 189.796875 179.964844 189.515625 179.964844 Z M 189.515625 179.964844 " fill-opacity="1" fill-rule="nonzero"/><path fill="#ffffff" d="M 191.554688 182.996094 C 191.273438 182.996094 191.042969 183.222656 191.042969 183.5 L 191.042969 187.546875 C 191.042969 187.824219 191.273438 188.050781 191.554688 188.050781 C 191.835938 188.050781 192.0625 187.824219 192.0625 187.546875 L 192.0625 183.5 C 192.0625 183.222656 191.835938 182.996094 191.554688 182.996094 Z M 191.554688 182.996094 " fill-opacity="1" fill-rule="nonzero"/><path fill="#ffffff" d="M 193.59375 184.007812 C 193.3125 184.007812 193.085938 184.234375 193.085938 184.511719 L 193.085938 186.535156 C 193.085938 186.8125 193.3125 187.039062 193.59375 187.039062 C 193.875 187.039062 194.105469 186.8125 194.105469 186.535156 L 194.105469 184.511719 C 194.105469 184.234375 193.875 184.007812 193.59375 184.007812 Z M 193.59375 184.007812 " fill-opacity="1" fill-rule="nonzero"/><path fill="#ffffff" d="M 195.632812 179.964844 C 195.351562 179.964844 195.125 180.191406 195.125 180.46875 L 195.125 189.566406 C 195.125 189.847656 195.351562 190.070312 195.632812 190.070312 C 195.917969 190.070312 196.144531 189.847656 196.144531 189.566406 L 196.144531 180.46875 C 196.144531 180.191406 195.917969 179.964844 195.632812 179.964844 Z M 195.632812 179.964844 " fill-opacity="1" fill-rule="nonzero"/><path fill="#ffffff" d="M 197.675781 182.996094 C 197.390625 182.996094 197.164062 183.222656 197.164062 183.5 L 197.164062 187.546875 C 197.164062 187.824219 197.390625 188.050781 197.675781 188.050781 C 197.957031 188.050781 198.183594 187.824219 198.183594 187.546875 L 198.183594 183.5 C 198.183594 183.222656 197.957031 182.996094 197.675781 182.996094 Z M 197.675781 182.996094 " fill-opacity="1" fill-rule="nonzero"/><g clip-path="url(#c7d94e0541)"><path fill="#ffffff" d="M 199.714844 184.007812 C 199.433594 184.007812 199.203125 184.234375 199.203125 184.511719 L 199.203125 186.535156 C 199.203125 186.8125 199.433594 187.039062 199.714844 187.039062 C 199.996094 187.039062 200.222656 186.8125 200.222656 186.535156 L 200.222656 184.511719 C 200.222656 184.234375 199.996094 184.007812 199.714844 184.007812 Z M 199.714844 184.007812 " fill-opacity="1" fill-rule="nonzero"/></g><g clip-path="url(#e449caaacd)"><path fill="#ffffff" d="M 216.882812 184.945312 C 216.882812 179.769531 212.855469 175.570312 207.882812 175.570312 L 207.882812 194.320312 C 212.855469 194.320312 216.882812 190.125 216.882812 184.945312 Z M 216.882812 184.945312 " fill-opacity="1" fill-rule="nonzero"/></g><g clip-path="url(#e51089ea00)"><path fill="#ffffff" d="M 226.933594 184.890625 C 226.933594 181.367188 224.25 178.515625 220.933594 178.515625 L 220.933594 191.265625 C 224.25 191.265625 226.933594 188.410156 226.933594 184.890625 Z M 226.933594 184.890625 " fill-opacity="1" fill-rule="nonzero"/></g><g clip-path="url(#e0372e40a7)"><path fill="#ffffff" d="M 148.0625 184.890625 C 148.0625 181.367188 150.746094 178.515625 154.0625 178.515625 L 154.0625 191.265625 C 150.746094 191.265625 148.0625 188.410156 148.0625 184.890625 Z M 148.0625 184.890625 " fill-opacity="1" fill-rule="nonzero"/></g><g clip-path="url(#90e85cb4f6)"><path fill="#ffffff" d="M 158.234375 185.015625 C 158.234375 190.195312 162.261719 194.390625 167.234375 194.390625 L 167.234375 175.640625 C 162.261719 175.640625 158.234375 179.839844 158.234375 185.015625 Z M 158.234375 185.015625 " fill-opacity="1" fill-rule="nonzero"/></g><g fill="#ffffff" fill-opacity="1"><g transform="translate(127.182586, 230.947821)"><g><path d="M 3.972656 0 L 3.972656 -11.796875 L 9.097656 -4.90625 L 9.660156 -4.90625 L 14.816406 -11.789062 L 14.816406 0 L 16.757812 0 L 16.757812 -14.925781 L 15.058594 -14.925781 L 9.394531 -7.398438 L 9.382812 -7.398438 L 3.710938 -14.925781 L 2.03125 -14.925781 L 2.03125 0 Z M 3.972656 0 "/></g></g></g><g fill="#ffffff" fill-opacity="1"><g transform="translate(153.436281, 230.947821)"><g><path d="M 7.925781 0.308594 C 11.535156 0.308594 14.101562 -2.183594 14.101562 -5.785156 L 14.101562 -14.9375 L 12.160156 -14.9375 L 12.160156 -5.90625 C 12.160156 -3.46875 10.582031 -1.492188 7.925781 -1.492188 C 5.203125 -1.492188 3.675781 -3.5 3.675781 -5.925781 L 3.675781 -14.9375 L 1.746094 -14.9375 L 1.746094 -5.785156 C 1.746094 -2.085938 4.445312 0.308594 7.925781 0.308594 Z M 7.925781 0.308594 "/></g></g></g><g fill="#ffffff" fill-opacity="1"><g transform="translate(176.748707, 230.947821)"><g><path d="M 6.683594 0.316406 C 10.351562 0.316406 12.589844 -1.328125 12.589844 -4.125 C 12.589844 -7.1875 9.8125 -8.101562 7.332031 -8.496094 C 4.652344 -8.855469 3.148438 -9.527344 3.148438 -11.097656 C 3.148438 -12.324219 3.894531 -13.542969 6.597656 -13.542969 C 8.835938 -13.542969 10.042969 -12.488281 10.042969 -11.007812 L 11.996094 -11.007812 C 11.996094 -13.5 10.128906 -15.253906 6.617188 -15.253906 C 2.734375 -15.253906 1.207031 -13.335938 1.207031 -11.105469 C 1.207031 -8.089844 4.238281 -7.265625 6.726562 -6.847656 C 8.957031 -6.507812 10.625 -5.882812 10.625 -4.125 C 10.625 -2.28125 9.21875 -1.351562 6.671875 -1.351562 C 4.214844 -1.351562 2.765625 -2.753906 2.765625 -4.324219 L 0.824219 -4.324219 C 0.824219 -2.0625 2.632812 0.316406 6.683594 0.316406 Z M 6.683594 0.316406 "/></g></g></g><g fill="#ffffff" fill-opacity="1"><g transform="translate(197.569834, 230.947821)"><g><path d="M 3.972656 0 L 3.972656 -14.925781 L 2.03125 -14.925781 L 2.03125 0 Z M 3.972656 0 "/></g></g></g><g fill="#ffffff" fill-opacity="1"><g transform="translate(211.03779, 230.947821)"><g><path d="M 13.457031 -14.925781 L 11.160156 -14.925781 L 3.972656 -6.082031 L 3.972656 -14.925781 L 2.03125 -14.925781 L 2.03125 0 L 3.972656 0 L 3.972656 -3.488281 L 6.761719 -6.914062 L 11.964844 0 L 14.289062 0 L 8.035156 -8.339844 Z M 13.457031 -14.925781 "/></g></g></g><g fill="#ffffff" fill-opacity="1"><g transform="translate(233.033229, 230.947821)"><g><path d="M 14.640625 0 L 8.332031 -14.925781 L 6.464844 -14.925781 L 0.144531 0 L 2.207031 0 L 3.621094 -3.378906 L 11.160156 -3.378906 L 12.578125 0 Z M 7.320312 -12.195312 L 7.386719 -12.445312 L 7.410156 -12.445312 L 7.464844 -12.195312 L 10.46875 -5.027344 L 4.3125 -5.027344 Z M 7.320312 -12.195312 "/></g></g></g><g fill="#ffffff" fill-opacity="1"><g transform="translate(131.039921, 244.891826)"><g><path d="M 5.972656 -0.148438 L 5.488281 -4.96875 C 5.476562 -5.050781 5.4375 -5.09375 5.359375 -5.09375 L 5.347656 -5.09375 C 5.261719 -5.09375 5.246094 -5.046875 5.203125 -4.976562 L 3.144531 -1.480469 L 1.082031 -4.976562 C 1.039062 -5.046875 1.023438 -5.09375 0.941406 -5.09375 L 0.925781 -5.09375 C 0.847656 -5.09375 0.804688 -5.050781 0.800781 -4.96875 L 0.3125 -0.148438 C 0.300781 -0.0429688 0.363281 0.00390625 0.460938 0.00390625 L 1.097656 0.00390625 C 1.191406 0.00390625 1.238281 -0.0351562 1.25 -0.140625 L 1.492188 -2.585938 L 2.976562 -0.0585938 C 3.039062 0.03125 3.0625 0.0742188 3.144531 0.0742188 L 3.148438 0.0742188 C 3.226562 0.0742188 3.25 0.03125 3.308594 -0.0585938 L 4.796875 -2.589844 L 5.035156 -0.140625 C 5.046875 -0.0351562 5.09375 0.00390625 5.1875 0.00390625 L 5.828125 0.00390625 C 5.925781 0.00390625 5.984375 -0.0429688 5.972656 -0.148438 Z M 5.972656 -0.148438 "/></g></g></g><g fill="#ffffff" fill-opacity="1"><g transform="translate(139.352675, 244.891826)"><g><path d="M 1.441406 -4.90625 C 1.441406 -4.980469 1.398438 -5.023438 1.332031 -5.023438 L 0.617188 -5.023438 C 0.550781 -5.023438 0.507812 -4.980469 0.507812 -4.90625 L 0.507812 -2.0625 C 0.507812 -0.800781 1.367188 0.078125 2.621094 0.078125 C 3.867188 0.078125 4.734375 -0.792969 4.734375 -2.050781 L 4.734375 -4.90625 C 4.734375 -4.984375 4.6875 -5.023438 4.613281 -5.023438 L 3.921875 -5.023438 C 3.851562 -5.023438 3.804688 -4.980469 3.804688 -4.90625 L 3.804688 -2.054688 C 3.804688 -1.351562 3.304688 -0.832031 2.621094 -0.832031 C 1.933594 -0.832031 1.441406 -1.351562 1.441406 -2.054688 Z M 1.441406 -4.90625 "/></g></g></g><g fill="#ffffff" fill-opacity="1"><g transform="translate(146.628563, 244.891826)"><g><path d="M 2.265625 0.078125 C 3.320312 0.078125 4.066406 -0.511719 4.066406 -1.445312 C 4.066406 -2.335938 3.320312 -2.640625 2.515625 -2.902344 C 1.929688 -3.101562 1.457031 -3.292969 1.457031 -3.667969 C 1.457031 -3.980469 1.734375 -4.203125 2.210938 -4.203125 C 2.503906 -4.203125 2.832031 -4.082031 3.058594 -3.871094 C 3.164062 -3.800781 3.253906 -3.773438 3.34375 -3.882812 L 3.691406 -4.28125 C 3.753906 -4.355469 3.75 -4.449219 3.683594 -4.523438 C 3.390625 -4.863281 2.824219 -5.09375 2.253906 -5.09375 C 1.207031 -5.09375 0.542969 -4.527344 0.542969 -3.679688 C 0.542969 -2.867188 1.097656 -2.503906 2.042969 -2.191406 C 2.722656 -1.960938 3.101562 -1.789062 3.101562 -1.433594 C 3.101562 -1.046875 2.792969 -0.8125 2.230469 -0.8125 C 1.808594 -0.8125 1.339844 -1.058594 1.046875 -1.375 C 0.96875 -1.445312 0.886719 -1.460938 0.824219 -1.402344 L 0.394531 -0.972656 C 0.324219 -0.90625 0.316406 -0.820312 0.367188 -0.757812 C 0.730469 -0.265625 1.503906 0.078125 2.265625 0.078125 Z M 2.265625 0.078125 "/></g></g></g><g fill="#ffffff" fill-opacity="1"><g transform="translate(153.039298, 244.891826)"><g><path d="M 1.527344 -4.910156 C 1.527344 -4.984375 1.488281 -5.023438 1.417969 -5.023438 L 0.707031 -5.023438 C 0.636719 -5.023438 0.597656 -4.984375 0.597656 -4.910156 L 0.597656 -0.105469 C 0.597656 -0.0351562 0.636719 0.00390625 0.707031 0.00390625 L 1.417969 0.00390625 C 1.488281 0.00390625 1.527344 -0.0351562 1.527344 -0.105469 Z M 1.527344 -4.910156 "/></g></g></g><g fill="#ffffff" fill-opacity="1"><g transform="translate(157.194683, 244.891826)"><g><path d="M 3.914062 -1.207031 C 3.636719 -0.980469 3.25 -0.851562 2.925781 -0.851562 C 1.984375 -0.851562 1.226562 -1.574219 1.226562 -2.503906 C 1.226562 -3.429688 1.980469 -4.164062 2.925781 -4.164062 C 3.265625 -4.164062 3.644531 -4.039062 3.921875 -3.800781 C 4.007812 -3.730469 4.101562 -3.75 4.136719 -3.808594 L 4.515625 -4.375 C 4.550781 -4.429688 4.546875 -4.503906 4.464844 -4.566406 C 4.050781 -4.898438 3.425781 -5.09375 2.925781 -5.09375 C 1.460938 -5.09375 0.296875 -3.957031 0.296875 -2.503906 C 0.296875 -1.050781 1.460938 0.078125 2.925781 0.078125 C 3.441406 0.078125 4.046875 -0.125 4.445312 -0.4375 C 4.515625 -0.488281 4.546875 -0.574219 4.515625 -0.625 L 4.136719 -1.199219 C 4.09375 -1.261719 3.996094 -1.265625 3.914062 -1.207031 Z M 3.914062 -1.207031 "/></g></g></g><g fill="#ffffff" fill-opacity="1"><g transform="translate(164.087525, 244.891826)"><g/></g></g><g fill="#ffffff" fill-opacity="1"><g transform="translate(168.24291, 244.891826)"><g><path d="M 4.027344 -5.015625 L 0.746094 -5.015625 C 0.652344 -5.015625 0.597656 -4.964844 0.597656 -4.871094 L 0.597656 -0.144531 C 0.597656 -0.0546875 0.652344 0 0.746094 0 L 1.390625 0 C 1.480469 0 1.53125 -0.0546875 1.53125 -0.144531 L 1.53125 -1.613281 L 3.53125 -1.613281 C 3.640625 -1.613281 3.703125 -1.671875 3.703125 -1.761719 L 3.703125 -2.3125 C 3.703125 -2.410156 3.640625 -2.46875 3.53125 -2.46875 L 1.53125 -2.46875 L 1.53125 -4.132812 L 4.027344 -4.132812 C 4.125 -4.132812 4.179688 -4.183594 4.179688 -4.28125 L 4.179688 -4.871094 C 4.179688 -4.964844 4.125 -5.015625 4.027344 -5.015625 Z M 4.027344 -5.015625 "/></g></g></g><g fill="#ffffff" fill-opacity="1"><g transform="translate(174.71308, 244.891826)"><g><path d="M 0.296875 -2.5 C 0.296875 -1.042969 1.441406 0.078125 2.898438 0.078125 C 4.355469 0.078125 5.5 -1.042969 5.5 -2.5 C 5.5 -3.957031 4.355469 -5.09375 2.898438 -5.09375 C 1.441406 -5.09375 0.296875 -3.957031 0.296875 -2.5 Z M 1.226562 -2.5 C 1.226562 -3.4375 1.964844 -4.164062 2.898438 -4.164062 C 3.832031 -4.164062 4.570312 -3.4375 4.570312 -2.5 C 4.570312 -1.570312 3.835938 -0.851562 2.898438 -0.851562 C 1.960938 -0.851562 1.226562 -1.570312 1.226562 -2.5 Z M 1.226562 -2.5 "/></g></g></g><g fill="#ffffff" fill-opacity="1"><g transform="translate(182.540421, 244.891826)"><g><path d="M 3.746094 -1.484375 C 4.273438 -1.820312 4.597656 -2.386719 4.597656 -3.070312 C 4.597656 -4.199219 3.746094 -5.015625 2.570312 -5.015625 L 1.398438 -5.015625 C 1.316406 -5.015625 1.101562 -5.015625 0.910156 -5.015625 L 0.746094 -5.015625 C 0.660156 -5.015625 0.597656 -4.957031 0.597656 -4.875 L 0.597656 -0.140625 C 0.597656 -0.0546875 0.660156 0.00390625 0.746094 0.00390625 L 1.378906 0.00390625 C 1.46875 0.00390625 1.53125 -0.0546875 1.53125 -0.140625 L 1.53125 -1.160156 L 2.570312 -1.160156 C 2.6875 -1.160156 2.800781 -1.164062 2.914062 -1.183594 L 3.429688 -0.117188 C 3.46875 -0.0507812 3.535156 0.00390625 3.597656 0.00390625 L 4.324219 0.00390625 C 4.429688 0.00390625 4.472656 -0.0742188 4.421875 -0.167969 Z M 2.507812 -1.9375 L 1.53125 -1.9375 L 1.53125 -4.199219 L 2.507812 -4.199219 C 3.171875 -4.199219 3.664062 -3.726562 3.664062 -3.078125 C 3.664062 -2.40625 3.183594 -1.9375 2.507812 -1.9375 Z M 2.507812 -1.9375 "/></g></g></g><g fill="#ffffff" fill-opacity="1"><g transform="translate(189.578556, 244.891826)"><g/></g></g><g fill="#ffffff" fill-opacity="1"><g transform="translate(193.733941, 244.891826)"><g><path d="M 0.195312 -4.347656 C 0.195312 -4.253906 0.25 -4.199219 0.339844 -4.199219 L 1.589844 -4.199219 L 1.589844 -0.140625 C 1.589844 -0.0507812 1.640625 0.00390625 1.734375 0.00390625 L 2.371094 0.00390625 C 2.464844 0.00390625 2.519531 -0.0507812 2.519531 -0.140625 L 2.519531 -4.199219 L 3.777344 -4.199219 C 3.867188 -4.199219 3.917969 -4.257812 3.917969 -4.347656 L 3.917969 -4.871094 C 3.917969 -4.960938 3.867188 -5.015625 3.777344 -5.015625 L 0.339844 -5.015625 C 0.246094 -5.015625 0.195312 -4.964844 0.195312 -4.871094 Z M 0.195312 -4.347656 "/></g></g></g><g fill="#ffffff" fill-opacity="1"><g transform="translate(199.877202, 244.891826)"><g><path d="M 4.847656 -5.023438 L 4.132812 -5.023438 C 4.066406 -5.023438 4.027344 -4.980469 4.027344 -4.910156 L 4.027344 -2.414062 L 1.53125 -2.414062 L 1.53125 -4.910156 C 1.53125 -4.980469 1.488281 -5.023438 1.421875 -5.023438 L 0.710938 -5.023438 C 0.640625 -5.023438 0.597656 -4.984375 0.597656 -4.910156 L 0.597656 -0.105469 C 0.597656 -0.0351562 0.640625 0.00390625 0.710938 0.00390625 L 1.421875 0.00390625 C 1.488281 0.00390625 1.53125 -0.0351562 1.53125 -0.105469 L 1.53125 -1.59375 L 4.027344 -1.59375 L 4.027344 -0.105469 C 4.027344 -0.0351562 4.066406 0.00390625 4.132812 0.00390625 L 4.847656 0.00390625 C 4.917969 0.00390625 4.960938 -0.0351562 4.960938 -0.105469 L 4.960938 -4.910156 C 4.960938 -4.984375 4.917969 -5.023438 4.847656 -5.023438 Z M 4.847656 -5.023438 "/></g></g></g><g fill="#ffffff" fill-opacity="1"><g transform="translate(207.463493, 244.891826)"><g><path d="M 4.230469 -0.886719 L 1.53125 -0.886719 L 1.53125 -1.890625 L 3.628906 -1.890625 C 3.738281 -1.890625 3.804688 -1.953125 3.804688 -2.039062 L 3.804688 -2.59375 C 3.804688 -2.691406 3.738281 -2.746094 3.628906 -2.746094 L 1.53125 -2.746094 L 1.53125 -4.132812 L 4.210938 -4.132812 C 4.304688 -4.132812 4.363281 -4.1875 4.363281 -4.28125 L 4.363281 -4.871094 C 4.363281 -4.960938 4.304688 -5.015625 4.210938 -5.015625 L 0.746094 -5.015625 C 0.652344 -5.015625 0.597656 -4.964844 0.597656 -4.867188 L 0.597656 -0.144531 C 0.597656 -0.0546875 0.652344 0 0.746094 0 L 4.28125 0 C 4.371094 0 4.429688 -0.0546875 4.429688 -0.144531 L 4.429688 -0.699219 C 4.429688 -0.8125 4.351562 -0.886719 4.230469 -0.886719 Z M 4.230469 -0.886719 "/></g></g></g><g fill="#ffffff" fill-opacity="1"><g transform="translate(214.260577, 244.891826)"><g/></g></g><g fill="#ffffff" fill-opacity="1"><g transform="translate(218.415967, 244.891826)"><g><path d="M 2.265625 0.078125 C 3.320312 0.078125 4.066406 -0.511719 4.066406 -1.445312 C 4.066406 -2.335938 3.320312 -2.640625 2.515625 -2.902344 C 1.929688 -3.101562 1.457031 -3.292969 1.457031 -3.667969 C 1.457031 -3.980469 1.734375 -4.203125 2.210938 -4.203125 C 2.503906 -4.203125 2.832031 -4.082031 3.058594 -3.871094 C 3.164062 -3.800781 3.253906 -3.773438 3.34375 -3.882812 L 3.691406 -4.28125 C 3.753906 -4.355469 3.75 -4.449219 3.683594 -4.523438 C 3.390625 -4.863281 2.824219 -5.09375 2.253906 -5.09375 C 1.207031 -5.09375 0.542969 -4.527344 0.542969 -3.679688 C 0.542969 -2.867188 1.097656 -2.503906 2.042969 -2.191406 C 2.722656 -1.960938 3.101562 -1.789062 3.101562 -1.433594 C 3.101562 -1.046875 2.792969 -0.8125 2.230469 -0.8125 C 1.808594 -0.8125 1.339844 -1.058594 1.046875 -1.375 C 0.96875 -1.445312 0.886719 -1.460938 0.824219 -1.402344 L 0.394531 -0.972656 C 0.324219 -0.90625 0.316406 -0.820312 0.367188 -0.757812 C 0.730469 -0.265625 1.503906 0.078125 2.265625 0.078125 Z M 2.265625 0.078125 "/></g></g></g><g fill="#ffffff" fill-opacity="1"><g transform="translate(224.826703, 244.891826)"><g><path d="M 0.296875 -2.5 C 0.296875 -1.042969 1.441406 0.078125 2.898438 0.078125 C 4.355469 0.078125 5.5 -1.042969 5.5 -2.5 C 5.5 -3.957031 4.355469 -5.09375 2.898438 -5.09375 C 1.441406 -5.09375 0.296875 -3.957031 0.296875 -2.5 Z M 1.226562 -2.5 C 1.226562 -3.4375 1.964844 -4.164062 2.898438 -4.164062 C 3.832031 -4.164062 4.570312 -3.4375 4.570312 -2.5 C 4.570312 -1.570312 3.835938 -0.851562 2.898438 -0.851562 C 1.960938 -0.851562 1.226562 -1.570312 1.226562 -2.5 Z M 1.226562 -2.5 "/></g></g></g><g fill="#ffffff" fill-opacity="1"><g transform="translate(232.654049, 244.891826)"><g><path d="M 1.441406 -4.90625 C 1.441406 -4.980469 1.398438 -5.023438 1.332031 -5.023438 L 0.617188 -5.023438 C 0.550781 -5.023438 0.507812 -4.980469 0.507812 -4.90625 L 0.507812 -2.0625 C 0.507812 -0.800781 1.367188 0.078125 2.621094 0.078125 C 3.867188 0.078125 4.734375 -0.792969 4.734375 -2.050781 L 4.734375 -4.90625 C 4.734375 -4.984375 4.6875 -5.023438 4.613281 -5.023438 L 3.921875 -5.023438 C 3.851562 -5.023438 3.804688 -4.980469 3.804688 -4.90625 L 3.804688 -2.054688 C 3.804688 -1.351562 3.304688 -0.832031 2.621094 -0.832031 C 1.933594 -0.832031 1.441406 -1.351562 1.441406 -2.054688 Z M 1.441406 -4.90625 "/></g></g></g><g fill="#ffffff" fill-opacity="1"><g transform="translate(239.92994, 244.891826)"><g><path d="M 3.796875 -0.820312 L 1.53125 -0.820312 L 1.53125 -4.910156 C 1.53125 -4.984375 1.488281 -5.023438 1.421875 -5.023438 L 0.710938 -5.023438 C 0.640625 -5.023438 0.597656 -4.984375 0.597656 -4.910156 L 0.597656 -0.113281 C 0.597656 -0.0390625 0.640625 0 0.710938 0 L 3.796875 0 C 3.867188 0 3.90625 -0.0390625 3.90625 -0.113281 L 3.90625 -0.707031 C 3.90625 -0.777344 3.867188 -0.820312 3.796875 -0.820312 Z M 3.796875 -0.820312 "/></g></g></g></svg>